<svg width="121" height="18" viewBox="0 0 121 18" fill="none" xmlns="http://www.w3.org/2000/svg">
<path d="M8.52266 0.552007C8.7224 0.278828 9.13015 0.278829 9.3299 0.552007L12.0844 4.31915C12.1461 4.40355 12.2327 4.46648 12.332 4.49909L16.766 5.95462C17.0875 6.06017 17.2135 6.44797 17.0154 6.72235L14.2838 10.5061C14.2226 10.5909 14.1895 10.6927 14.1892 10.7973L14.1751 15.464C14.1741 15.8024 13.8442 16.042 13.522 15.9384L9.07935 14.5098C8.97981 14.4778 8.87275 14.4778 8.77321 14.5098L4.33054 15.9384C4.00837 16.042 3.6785 15.8024 3.67747 15.464L3.66334 10.7973C3.66302 10.6927 3.62994 10.5909 3.56874 10.5061L0.837148 6.72235C0.639064 6.44796 0.765066 6.06017 1.0866 5.95462L5.52054 4.49909C5.61988 4.46648 5.70649 4.40355 5.7682 4.31915L8.52266 0.552007Z" fill="#FFC700"/>
<path d="M34.3078 0.552007C34.5076 0.278828 34.9153 0.278829 35.1151 0.552007L37.8695 4.31915C37.9312 4.40355 38.0178 4.46648 38.1172 4.49909L42.5511 5.95462C42.8726 6.06017 42.9986 6.44797 42.8006 6.72235L40.069 10.5061C40.0078 10.5909 39.9747 10.6927 39.9744 10.7973L39.9602 15.464C39.9592 15.8024 39.6293 16.042 39.3072 15.9384L34.8645 14.5098C34.765 14.4778 34.6579 14.4778 34.5584 14.5098L30.1157 15.9384C29.7935 16.042 29.4637 15.8024 29.4626 15.464L29.4485 10.7973C29.4482 10.6927 29.4151 10.5909 29.3539 10.5061L26.6223 6.72235C26.4242 6.44796 26.5502 6.06017 26.8718 5.95462L31.3057 4.49909C31.405 4.46648 31.4916 4.40355 31.5534 4.31915L34.3078 0.552007Z" fill="#FFC700"/>
<path d="M60.0969 0.552007C60.2966 0.278828 60.7044 0.278829 60.9041 0.552007L63.6586 4.31915C63.7203 4.40355 63.8069 4.46648 63.9062 4.49909L68.3402 5.95462C68.6617 6.06017 68.7877 6.44797 68.5896 6.72235L65.858 10.5061C65.7968 10.5909 65.7638 10.6927 65.7634 10.7973L65.7493 15.464C65.7483 15.8024 65.4184 16.042 65.0962 15.9384L60.6536 14.5098C60.554 14.4778 60.447 14.4778 60.3474 14.5098L55.9048 15.9384C55.5826 16.042 55.2527 15.8024 55.2517 15.464L55.2376 10.7973C55.2372 10.6927 55.2042 10.5909 55.143 10.5061L52.4114 6.72235C52.2133 6.44796 52.3393 6.06017 52.6608 5.95462L57.0948 4.49909C57.1941 4.46648 57.2807 4.40355 57.3424 4.31915L60.0969 0.552007Z" fill="#FFC700"/>
<path d="M85.884 0.552007C86.0837 0.278828 86.4915 0.278829 86.6912 0.552007L89.4457 4.31915C89.5074 4.40355 89.594 4.46648 89.6933 4.49909L94.1273 5.95462C94.4488 6.06017 94.5748 6.44797 94.3767 6.72235L91.6451 10.5061C91.5839 10.5909 91.5509 10.6927 91.5505 10.7973L91.5364 15.464C91.5354 15.8024 91.2055 16.042 90.8833 15.9384L86.4407 14.5098C86.3411 14.4778 86.2341 14.4778 86.1345 14.5098L81.6919 15.9384C81.3697 16.042 81.0398 15.8024 81.0388 15.464L81.0247 10.7973C81.0244 10.6927 80.9913 10.5909 80.9301 10.5061L78.1985 6.72235C78.0004 6.44796 78.1264 6.06017 78.4479 5.95462L82.8819 4.49909C82.9812 4.46648 83.0678 4.40355 83.1295 4.31915L85.884 0.552007Z" fill="#FFC700"/>
<path d="M111.671 0.552007C111.871 0.278828 112.279 0.278829 112.478 0.552007L115.233 4.31915C115.295 4.40355 115.381 4.46648 115.48 4.49909L119.914 5.95462C120.236 6.06017 120.362 6.44797 120.164 6.72235L117.432 10.5061C117.371 10.5909 117.338 10.6927 117.338 10.7973L117.324 15.464C117.322 15.8024 116.993 16.042 116.67 15.9384L112.228 14.5098C112.128 14.4778 112.021 14.4778 111.922 14.5098L107.479 15.9384C107.157 16.042 106.827 15.8024 106.826 15.464L106.812 10.7973C106.811 10.6927 106.778 10.5909 106.717 10.5061L103.986 6.72235C103.788 6.44796 103.914 6.06017 104.235 5.95462L108.669 4.49909C108.768 4.46648 108.855 4.40355 108.917 4.31915L111.671 0.552007Z" fill="#FFC700"/>
</svg>
