<svg width="1399" height="451" viewBox="0 0 1399 451" fill="none" xmlns="http://www.w3.org/2000/svg">
<path d="M0 0H999C1219.91 0 1399 179.086 1399 400V451H0V0Z" fill="#EDEFFF"/>
<g filter="url(#filter0_d_111_2519)">
<rect x="223" y="254" width="341" height="137" rx="16" fill="white"/>
</g>
<path d="M671.294 49.8C671.294 47.6027 671.785 45.64 672.766 43.912C673.769 42.1627 675.124 40.808 676.83 39.848C678.558 38.8667 680.489 38.376 682.622 38.376C685.118 38.376 687.305 39.016 689.182 40.296C691.06 41.576 692.372 43.3467 693.118 45.608H687.966C687.454 44.5413 686.729 43.7413 685.79 43.208C684.873 42.6747 683.806 42.408 682.59 42.408C681.289 42.408 680.126 42.7173 679.102 43.336C678.1 43.9333 677.31 44.7867 676.734 45.896C676.18 47.0053 675.902 48.3067 675.902 49.8C675.902 51.272 676.18 52.5733 676.734 53.704C677.31 54.8133 678.1 55.6773 679.102 56.296C680.126 56.8933 681.289 57.192 682.59 57.192C683.806 57.192 684.873 56.9253 685.79 56.392C686.729 55.8373 687.454 55.0267 687.966 53.96H693.118C692.372 56.2427 691.06 58.024 689.182 59.304C687.326 60.5627 685.14 61.192 682.622 61.192C680.489 61.192 678.558 60.712 676.83 59.752C675.124 58.7707 673.769 57.416 672.766 55.688C671.785 53.96 671.294 51.9973 671.294 49.8ZM695.473 52.072C695.473 50.28 695.825 48.6907 696.529 47.304C697.254 45.9173 698.225 44.8507 699.441 44.104C700.678 43.3573 702.054 42.984 703.569 42.984C704.892 42.984 706.044 43.2507 707.025 43.784C708.028 44.3173 708.828 44.9893 709.425 45.8V43.272H713.937V61H709.425V58.408C708.849 59.24 708.049 59.9333 707.025 60.488C706.022 61.0213 704.86 61.288 703.537 61.288C702.044 61.288 700.678 60.904 699.441 60.136C698.225 59.368 697.254 58.2907 696.529 56.904C695.825 55.496 695.473 53.8853 695.473 52.072ZM709.425 52.136C709.425 51.048 709.212 50.12 708.785 49.352C708.358 48.5627 707.782 47.9653 707.057 47.56C706.332 47.1333 705.553 46.92 704.721 46.92C703.889 46.92 703.121 47.1227 702.417 47.528C701.713 47.9333 701.137 48.5307 700.689 49.32C700.262 50.088 700.049 51.0053 700.049 52.072C700.049 53.1387 700.262 54.0773 700.689 54.888C701.137 55.6773 701.713 56.2853 702.417 56.712C703.142 57.1387 703.91 57.352 704.721 57.352C705.553 57.352 706.332 57.1493 707.057 56.744C707.782 56.3173 708.358 55.72 708.785 54.952C709.212 54.1627 709.425 53.224 709.425 52.136ZM723.208 46.952V55.528C723.208 56.1253 723.347 56.5627 723.624 56.84C723.923 57.096 724.414 57.224 725.096 57.224H727.176V61H724.36C720.584 61 718.696 59.1653 718.696 55.496V46.952H716.584V43.272H718.696V38.888H723.208V43.272H727.176V46.952H723.208ZM746.559 51.752C746.559 52.392 746.516 52.968 746.431 53.48H733.471C733.577 54.76 734.025 55.7627 734.815 56.488C735.604 57.2133 736.575 57.576 737.727 57.576C739.391 57.576 740.575 56.8613 741.279 55.432H746.111C745.599 57.1387 744.617 58.5467 743.167 59.656C741.716 60.744 739.935 61.288 737.823 61.288C736.116 61.288 734.58 60.9147 733.215 60.168C731.871 59.4 730.815 58.3227 730.047 56.936C729.3 55.5493 728.927 53.9493 728.927 52.136C728.927 50.3013 729.3 48.6907 730.047 47.304C730.793 45.9173 731.839 44.8507 733.183 44.104C734.527 43.3573 736.073 42.984 737.823 42.984C739.508 42.984 741.012 43.3467 742.335 44.072C743.679 44.7973 744.713 45.832 745.439 47.176C746.185 48.4987 746.559 50.024 746.559 51.752ZM741.919 50.472C741.897 49.32 741.481 48.4027 740.671 47.72C739.86 47.016 738.868 46.664 737.695 46.664C736.585 46.664 735.647 47.0053 734.879 47.688C734.132 48.3493 733.673 49.2773 733.503 50.472H741.919ZM756.453 42.984C757.775 42.984 758.938 43.2507 759.941 43.784C760.943 44.296 761.733 44.968 762.309 45.8V43.272H766.821V61.128C766.821 62.7707 766.49 64.232 765.829 65.512C765.167 66.8133 764.175 67.8373 762.853 68.584C761.53 69.352 759.93 69.736 758.053 69.736C755.535 69.736 753.466 69.1493 751.845 67.976C750.245 66.8027 749.338 65.2027 749.125 63.176H753.573C753.807 63.9867 754.309 64.6267 755.077 65.096C755.866 65.5867 756.815 65.832 757.925 65.832C759.226 65.832 760.282 65.4373 761.093 64.648C761.903 63.88 762.309 62.7067 762.309 61.128V58.376C761.733 59.208 760.933 59.9013 759.909 60.456C758.906 61.0107 757.754 61.288 756.453 61.288C754.959 61.288 753.594 60.904 752.357 60.136C751.119 59.368 750.138 58.2907 749.413 56.904C748.709 55.496 748.357 53.8853 748.357 52.072C748.357 50.28 748.709 48.6907 749.413 47.304C750.138 45.9173 751.109 44.8507 752.325 44.104C753.562 43.3573 754.938 42.984 756.453 42.984ZM762.309 52.136C762.309 51.048 762.095 50.12 761.669 49.352C761.242 48.5627 760.666 47.9653 759.941 47.56C759.215 47.1333 758.437 46.92 757.605 46.92C756.773 46.92 756.005 47.1227 755.301 47.528C754.597 47.9333 754.021 48.5307 753.573 49.32C753.146 50.088 752.933 51.0053 752.933 52.072C752.933 53.1387 753.146 54.0773 753.573 54.888C754.021 55.6773 754.597 56.2853 755.301 56.712C756.026 57.1387 756.794 57.352 757.605 57.352C758.437 57.352 759.215 57.1493 759.941 56.744C760.666 56.3173 761.242 55.72 761.669 54.952C762.095 54.1627 762.309 53.224 762.309 52.136ZM778.748 61.288C777.041 61.288 775.505 60.9147 774.14 60.168C772.775 59.4 771.697 58.3227 770.908 56.936C770.14 55.5493 769.756 53.9493 769.756 52.136C769.756 50.3227 770.151 48.7227 770.94 47.336C771.751 45.9493 772.849 44.8827 774.236 44.136C775.623 43.368 777.169 42.984 778.876 42.984C780.583 42.984 782.129 43.368 783.516 44.136C784.903 44.8827 785.991 45.9493 786.78 47.336C787.591 48.7227 787.996 50.3227 787.996 52.136C787.996 53.9493 787.58 55.5493 786.748 56.936C785.937 58.3227 784.828 59.4 783.42 60.168C782.033 60.9147 780.476 61.288 778.748 61.288ZM778.748 57.384C779.559 57.384 780.316 57.192 781.02 56.808C781.745 56.4027 782.321 55.8053 782.748 55.016C783.175 54.2267 783.388 53.2667 783.388 52.136C783.388 50.4507 782.94 49.16 782.044 48.264C781.169 47.3467 780.092 46.888 778.812 46.888C777.532 46.888 776.455 47.3467 775.58 48.264C774.727 49.16 774.3 50.4507 774.3 52.136C774.3 53.8213 774.716 55.1227 775.548 56.04C776.401 56.936 777.468 57.384 778.748 57.384ZM795.442 46.024C796.018 45.0853 796.765 44.3493 797.682 43.816C798.621 43.2827 799.688 43.016 800.882 43.016V47.72H799.698C798.29 47.72 797.224 48.0507 796.498 48.712C795.794 49.3733 795.442 50.5253 795.442 52.168V61H790.962V43.272H795.442V46.024ZM805.852 41.16C805.063 41.16 804.401 40.9147 803.868 40.424C803.356 39.912 803.1 39.2827 803.1 38.536C803.1 37.7893 803.356 37.1707 803.868 36.68C804.401 36.168 805.063 35.912 805.852 35.912C806.641 35.912 807.292 36.168 807.804 36.68C808.337 37.1707 808.604 37.7893 808.604 38.536C808.604 39.2827 808.337 39.912 807.804 40.424C807.292 40.9147 806.641 41.16 805.852 41.16ZM808.06 43.272V61H803.58V43.272H808.06ZM828.646 51.752C828.646 52.392 828.603 52.968 828.518 53.48H815.558C815.665 54.76 816.113 55.7627 816.902 56.488C817.691 57.2133 818.662 57.576 819.814 57.576C821.478 57.576 822.662 56.8613 823.366 55.432H828.198C827.686 57.1387 826.705 58.5467 825.254 59.656C823.803 60.744 822.022 61.288 819.91 61.288C818.203 61.288 816.667 60.9147 815.302 60.168C813.958 59.4 812.902 58.3227 812.134 56.936C811.387 55.5493 811.014 53.9493 811.014 52.136C811.014 50.3013 811.387 48.6907 812.134 47.304C812.881 45.9173 813.926 44.8507 815.27 44.104C816.614 43.3573 818.161 42.984 819.91 42.984C821.595 42.984 823.099 43.3467 824.422 44.072C825.766 44.7973 826.801 45.832 827.526 47.176C828.273 48.4987 828.646 50.024 828.646 51.752ZM824.006 50.472C823.985 49.32 823.569 48.4027 822.758 47.72C821.947 47.016 820.955 46.664 819.782 46.664C818.673 46.664 817.734 47.0053 816.966 47.688C816.219 48.3493 815.761 49.2773 815.59 50.472H824.006ZM838.38 61.288C836.929 61.288 835.628 61.032 834.476 60.52C833.324 59.9867 832.407 59.272 831.724 58.376C831.063 57.48 830.7 56.488 830.636 55.4H835.148C835.233 56.0827 835.564 56.648 836.14 57.096C836.737 57.544 837.473 57.768 838.348 57.768C839.201 57.768 839.863 57.5973 840.332 57.256C840.823 56.9147 841.068 56.4773 841.068 55.944C841.068 55.368 840.769 54.9413 840.172 54.664C839.596 54.3653 838.668 54.0453 837.388 53.704C836.065 53.384 834.977 53.0533 834.124 52.712C833.292 52.3707 832.567 51.848 831.948 51.144C831.351 50.44 831.052 49.4907 831.052 48.296C831.052 47.3147 831.329 46.4187 831.884 45.608C832.46 44.7973 833.271 44.1573 834.316 43.688C835.383 43.2187 836.631 42.984 838.06 42.984C840.172 42.984 841.857 43.5173 843.116 44.584C844.375 45.6293 845.068 47.048 845.196 48.84H840.908C840.844 48.136 840.545 47.5813 840.012 47.176C839.5 46.7493 838.807 46.536 837.932 46.536C837.121 46.536 836.492 46.6853 836.044 46.984C835.617 47.2827 835.404 47.6987 835.404 48.232C835.404 48.8293 835.703 49.288 836.3 49.608C836.897 49.9067 837.825 50.216 839.084 50.536C840.364 50.856 841.42 51.1867 842.252 51.528C843.084 51.8693 843.799 52.4027 844.396 53.128C845.015 53.832 845.335 54.7707 845.356 55.944C845.356 56.968 845.068 57.8853 844.492 58.696C843.937 59.5067 843.127 60.1467 842.06 60.616C841.015 61.064 839.788 61.288 838.38 61.288Z" fill="#242424"/>
<defs>
<filter id="filter0_d_111_2519" x="219" y="252" width="349" height="145" filterUnits="userSpaceOnUse" color-interpolation-filters="sRGB">
<feFlood flood-opacity="0" result="BackgroundImageFix"/>
<feColorMatrix in="SourceAlpha" type="matrix" values="0 0 0 0 0 0 0 0 0 0 0 0 0 0 0 0 0 0 127 0" result="hardAlpha"/>
<feOffset dy="2"/>
<feGaussianBlur stdDeviation="2"/>
<feComposite in2="hardAlpha" operator="out"/>
<feColorMatrix type="matrix" values="0 0 0 0 0 0 0 0 0 0 0 0 0 0 0 0 0 0 0.16 0"/>
<feBlend mode="normal" in2="BackgroundImageFix" result="effect1_dropShadow_111_2519"/>
<feBlend mode="normal" in="SourceGraphic" in2="effect1_dropShadow_111_2519" result="shape"/>
</filter>
</defs>
</svg>
